<svg xmlns="http://www.w3.org/2000/svg" viewBox="0 0 100 125" x="0px" y="0px"><title>1</title><path d="M75,42a20.062,20.062,0,0,0-2.7.194c-0.257-.651-0.546-1.285-0.856-1.906a21.989,21.989,0,0,1,11.449,1.18A31,31,0,0,0,21,44c0,1,.049,1.985.142,2.959l-1.385,1.385a5.012,5.012,0,0,0-.4.481A32.717,32.717,0,0,1,21.32,31.87,26,26,0,0,0,31,82H75A20,20,0,0,0,75,42ZM50,71A19.982,19.982,0,0,1,30.06,52.183l-3.232,3.231a1,1,0,0,1-1.414,0l-2.828-2.828a1,1,0,0,1,0-1.414l9.707-9.707a1,1,0,0,1,1.414,0l9.707,9.707a1,1,0,0,1,0,1.414l-2.828,2.828a1,1,0,0,1-1.414,0l-3.105-3.105a13.973,13.973,0,0,0,22.016,10.1l3.469,4.9A19.889,19.889,0,0,1,50,71ZM77.414,50.828l-9.707,9.707a1,1,0,0,1-1.414,0l-9.707-9.707a1,1,0,0,1,0-1.414l2.828-2.828a1,1,0,0,1,1.414,0l3.105,3.105a13.973,13.973,0,0,0-22.016-10.1l-3.469-4.9A19.96,19.96,0,0,1,69.94,49.817l3.232-3.231a1,1,0,0,1,1.414,0l2.828,2.828A1,1,0,0,1,77.414,50.828Z"/><text x="0" y="115" fill="#000000" font-size="5px" font-weight="bold" font-family="'Helvetica Neue', Helvetica, Arial-Unicode, Arial, Sans-serif">Created by Yuri Mazursky</text><text x="0" y="120" fill="#000000" font-size="5px" font-weight="bold" font-family="'Helvetica Neue', Helvetica, Arial-Unicode, Arial, Sans-serif">from the Noun Project</text></svg>